<svg xmlns="http://www.w3.org/2000/svg" viewBox="0 0 400 330" width="800" height="660">
  <!-- Background -->
  <rect width="400" height="330" fill="#FFF5F5"/>
  <!-- Header bar -->
  <rect x="0" y="0" width="400" height="55" rx="0" fill="#E53E3E"/>
  <!-- Question number -->
  <text x="20" y="36" font-size="18" font-weight="900" fill="white" font-family="Arial">Q3</text>
  <!-- Sign illustration -->
  <rect x="310" y="8" width="80" height="40" rx="6" fill="white" opacity="0.95"/>
  <svg x="321" y="12" width="50" height="50"><polygon points="22,4 28,4 32,8 32,22 28,26 22,26 18,22 18,8" fill="#E53E3E"/><text x="25" y="20" text-anchor="middle" font-size="7" font-weight="900" fill="white" font-family="Arial">STOP</text></svg>
  <!-- Header text -->
  <text x="60" y="36" font-size="12" fill="white" font-family="Arial" opacity="0.9">PERMIS DE CONDUIRE — SÉNÉGAL</text>
  <!-- Question zone -->
  <rect x="8" y="62" width="384" height="82" rx="10" fill="white" stroke="#E53E3E" stroke-width="1.5"/>
  <text x="220" y="108" text-anchor="middle" font-size="12.5" font-weight="600" fill="#1A202C" font-family="Arial">Je m&#x27;arrête au niveau du signal / Je passerai avant</text><text x="220" y="122" text-anchor="middle" font-size="12.5" font-weight="600" fill="#1A202C" font-family="Arial">les voitures venant de gauche (cédez-le-passage avec</text><text x="220" y="136" text-anchor="middle" font-size="12.5" font-weight="600" fill="#1A202C" font-family="Arial">STOP à 50 m)</text>
  <!-- Options -->
  <rect x="14" y="155" width="372" height="36" rx="8" fill="white" stroke="#E53E3E" stroke-width="1.5"/>
<rect x="14" y="155" width="36" height="36" rx="8" fill="#E53E3E"/>
<text x="32" y="178" text-anchor="middle" font-size="14" font-weight="900" fill="white" font-family="Arial">A</text>
<text x="78" y="169" font-size="11" fill="#1A202C" font-family="Arial">Je m&#x27;arrête au niveau du signal – OUI</text><rect x="14" y="197" width="372" height="36" rx="8" fill="white" stroke="#E53E3E" stroke-width="1.5"/>
<rect x="14" y="197" width="36" height="36" rx="8" fill="#E53E3E"/>
<text x="32" y="220" text-anchor="middle" font-size="14" font-weight="900" fill="white" font-family="Arial">B</text>
<text x="78" y="211" font-size="11" fill="#1A202C" font-family="Arial">Je m&#x27;arrête au niveau du signal – NON</text><rect x="14" y="239" width="372" height="36" rx="8" fill="white" stroke="#E53E3E" stroke-width="1.5"/>
<rect x="14" y="239" width="36" height="36" rx="8" fill="#E53E3E"/>
<text x="32" y="262" text-anchor="middle" font-size="14" font-weight="900" fill="white" font-family="Arial">C</text>
<text x="78" y="253" font-size="11" fill="#1A202C" font-family="Arial">Je passerai avant les voitures venant de gauche – OUI</text><rect x="14" y="281" width="372" height="36" rx="8" fill="white" stroke="#E53E3E" stroke-width="1.5"/>
<rect x="14" y="281" width="36" height="36" rx="8" fill="#E53E3E"/>
<text x="32" y="304" text-anchor="middle" font-size="14" font-weight="900" fill="white" font-family="Arial">D</text>
<text x="78" y="295" font-size="11" fill="#1A202C" font-family="Arial">Je passerai avant les voitures venant de gauche – NON</text>
</svg>